# xmcd
#
# Track frame offsets:
#	150
#	17187
#	41277
#	59017
#	80387
#	97669
#	119785
#	137875
#	149293
#	169850
#	196653
#
# Disc length: 2816 seconds
# Revision: 0
# Processed by: cddbd v1.5.2PL0 Copyright (c) Steve Scherf et al.
# Submitted via: dBpowerAMP V12.0
#
DISCID=940afe0b
DTITLE=CHRIS BEVINGTON - CHRIS BEVINGTON AND FRIENDS
DYEAR=2014
DGENRE=Blues
TTITLE0=DARK SIDE OF LOVE
TTITLE1=LET ME KNOW
TTITLE2=SHE'S OUT THERE SOMEWHERE
TTITLE3=ALL I WANT  IS YOU
TTITLE4=WAS
TTITLE5=HEART OF BLUES
TTITLE6=I DON'T NEED NO DOCTOR
TTITLE7=CROSSROADS
TTITLE8=SOMEHOW SOMEWHERE SOMEWAY
TTITLE9=BLUE ON BLACK
TTITLE10=PARTY LIKE NOBODY CARES
EXTD=
EXTT0=
EXTT1=
EXTT2=
EXTT3=
EXTT4=
EXTT5=
EXTT6=
EXTT7=
EXTT8=
EXTT9=
EXTT10=
PLAYORDER=
